<svg width="170" height="96" viewBox="0 0 170 96" fill="none" xmlns="http://www.w3.org/2000/svg">
<path d="M107.198 38.2556C107.187 38.0267 107.179 37.7976 107.176 37.5685C107.085 27.5374 107.286 18.7513 114.144 10.643C114.848 9.81103 115.784 9.19477 116.46 8.45032C121.779 2.5852 129.808 0.136851 137.548 0C143.26 0.0128789 150.07 1.15932 155.081 4.04668C160.543 7.19378 164.935 12.5352 167.329 18.306C170.24 25.3244 169.608 32.3525 169.609 39.728L169.649 64.1581C169.573 67.3228 169.634 70.5405 169.635 73.7108C169.638 80.6106 169.657 87.5136 169.647 94.4128C169.647 94.6664 169.586 94.8479 169.394 95.0149C166.08 94.7018 160.834 94.8754 157.365 94.8758L135.852 94.8813L44.4379 94.875L14.3172 94.8706L5.58655 94.8746C4.89821 94.8785 0.448096 94.9436 0.123795 94.784C-0.0535153 93.691 0.011833 89.8381 0.0114844 88.5796L0.0104896 76.2804L0.0319101 31.9063L0.00997704 10.2932L0.0362269 3.70324C0.0407181 2.91795 0.0129096 2.12905 0.0435791 1.34583C0.0567656 1.00913 0.592235 0.964525 0.850028 0.962526C3.10268 0.945094 5.35602 0.95299 7.60881 0.953933L20.997 0.958127L29.6288 0.936112C31.613 0.929478 33.8415 0.862509 35.7918 1.10323C44.1954 2.14047 51.3723 6.04136 56.8137 12.5511C57.1965 13.009 58.0245 14.7282 58.4963 14.8465C58.7628 13.8847 58.7314 10.3622 58.7334 9.19001L58.7276 0.769414C60.6846 0.952539 63.5168 0.891149 65.5437 0.891548L76.3489 0.89241L87.3064 0.895506C88.9952 0.894061 91.8878 0.960742 93.5016 0.808307C93.4532 4.09218 93.3913 38.0265 93.5145 38.2815C94.2349 38.6736 105.594 38.4095 107.198 38.2556ZM47.4027 47.0445C47.7719 46.1418 48.4382 45.4722 48.7366 44.7026C50.3488 40.6529 50.128 36.5106 50.1689 32.3031C50.3103 23.3071 45.4805 15.7749 36.2258 14.2362C33.6628 13.8102 30.3325 14.0432 27.6881 14.0541L13.1195 14.1282C13.143 14.8118 13.1337 15.491 13.1288 16.1748C12.887 23.04 13.0557 30.8919 13.0672 37.8238L13.0546 81.7626C13.2666 81.9186 13.1737 81.8779 13.5112 81.8331C15.4189 81.9737 18.3628 81.904 20.3367 81.9068L32.4452 81.9131L43.1805 81.913C48.2722 81.9099 52.0167 82.2857 56.6531 79.8648C67.7365 74.0796 67.8779 58.4013 58.026 51.2206C53.7896 48.1326 52.1494 48.3846 47.4027 47.0445ZM121.998 64.3688C121.81 65.1627 121.747 65.832 121.793 66.6526C121.63 68.1917 121.712 70.2694 121.694 71.8338C121.657 75.2008 121.767 78.6302 121.685 81.9947C123.944 81.7938 128.787 81.9355 131.189 81.9358L147.333 81.9363C150.438 81.936 153.915 82.0065 156.997 81.8684C156.767 80.7135 156.832 78.4565 156.828 77.2313C156.82 74.6275 156.871 72.0712 156.685 69.4653C154.073 69.6885 148.909 69.5393 146.129 69.5377L138.086 69.5346C137.368 69.5351 134.331 69.6929 133.905 69.3923C133.522 68.6333 134.012 65.7948 134.236 64.9177C134.601 63.353 135.168 62.6163 136.206 61.5057C138.482 59.0713 141.898 59.2796 144.884 58.2936C146.096 57.8932 146.925 57.4988 148.082 56.8613C151.616 54.9134 154.711 51.1731 155.837 47.2877C156.977 43.7702 156.771 40.435 156.795 36.8116C156.829 31.4784 157.199 26.2731 154.402 21.426C152.111 17.4087 148.315 14.468 143.851 13.2524C138.658 11.8871 132.984 12.5187 128.369 15.2344C121.832 19.0807 120.075 26.2657 120.094 33.375C120.096 34.4256 120.198 38.1069 119.986 38.9059L119.973 38.9533L128.647 38.972C129.36 38.9718 130.32 38.9642 130.992 38.9671C134.27 39.0264 133.032 38.7984 133.173 36.4322C133.395 32.6721 131.909 25.4315 137.331 24.7472C141.564 24.2126 143.297 26.0993 143.535 30.0744C143.666 32.26 143.565 34.52 143.6 36.7156C143.492 38.8085 143.839 41.9066 143.093 43.8731C141.746 47.4286 137.721 48.3585 134.443 49.0144C133.634 49.1763 130.823 50.3936 130.256 50.7317C127.164 52.5724 124.275 56.2335 123.179 59.6498C122.858 60.6856 121.928 63.5802 121.998 64.3688ZM118.508 48.9554C117.628 49.0849 115.283 48.9917 114.265 48.9658C112.102 48.9106 109.517 49.0802 107.399 48.9311C107.499 50.8671 107.55 70.3765 107.347 70.9562C106.568 71.4046 102.295 71.3377 101.198 71.0499C99.7121 70.66 98.4337 69.0393 98.3292 67.4774C98.1554 64.8777 98.2245 62.2165 98.2031 59.5911C98.1758 57.3313 98.1664 55.0713 98.175 52.8113C98.1711 51.6691 98.1204 50.1287 98.1856 49.0242C95.4889 48.9538 92.7914 48.926 90.0939 48.941C89.6426 48.9429 87.2778 49.0365 87.0005 48.9762C86.8446 49.1456 86.765 49.3374 86.7628 49.5642C86.7396 52.0062 86.7185 54.5734 86.7454 57.0078C86.7842 60.54 86.6848 64.1679 86.7647 67.6772C86.8256 70.3519 87.2806 72.4418 88.595 74.7356C89.4569 76.24 89.711 76.9104 91.1254 78.16C92.4991 79.3734 95.3333 80.9839 97.078 81.368C100.889 82.2072 105.646 81.9082 109.616 81.9351C112.22 81.9527 115.702 82.0153 118.219 81.8879C118.315 81.8832 118.411 81.8777 118.506 81.8716C118.338 79.2138 118.522 75.4807 118.537 72.718L118.489 59.2065L118.455 53.2971C118.438 52.0728 118.337 50.1231 118.508 48.9554ZM69.7379 10.9027C69.9211 12.4359 69.8751 14.342 69.8695 15.9105L69.8567 22.3118L69.858 44.7388L69.8619 71.2815C69.8613 72.8861 69.9734 80.8234 69.6964 81.8524L82.4078 81.8436L82.6281 81.68C82.684 80.8492 82.5421 79.8102 82.573 78.9609C82.7267 74.7215 82.5757 70.4528 82.6075 66.2077L82.6689 30.3811C82.6255 26.0363 82.6161 21.6913 82.641 17.3463C82.6393 15.2069 82.5774 13.1989 82.641 11.053C81.8101 10.8188 78.7402 10.8923 77.7268 10.8923L69.7379 10.9027Z" fill="white"/>
<path d="M26.4697 56.7165C31.0811 56.843 35.7261 56.683 40.4505 56.7285C45.712 56.7791 52.2194 55.6675 52.6077 63.094C52.7119 65.087 51.7161 66.2393 50.4151 67.5712C48.3518 69.4066 45.6671 69.0987 43.0978 69.0876L37.5417 69.0736C36.1247 69.0691 26.7992 69.2461 26.3843 68.7891C26.2708 67.4517 26.2382 57.5495 26.4697 56.7165Z" fill="white"/>
<path d="M26.7791 25.4516C29.3101 25.9448 33.653 24.802 35.9036 26.7197C36.9259 27.5907 37.9398 30.0793 37.9208 31.5539C37.8803 34.6886 38.3331 38.9184 37.3332 41.8889C37.2285 42.2002 36.2588 43.2945 36.0046 43.5897C35.588 43.9428 34.8398 44.5529 34.355 44.702C33.1748 45.0649 27.2247 45.2106 26.4424 44.8114C26.0954 43.7392 26.4407 37.6879 26.3515 36.0562C26.2031 33.3391 26.4737 30.0321 26.3485 27.2448C26.3138 26.4729 26.158 25.9002 26.7791 25.4516Z" fill="white"/>
<path d="M13.1285 16.1748C13.4794 15.5944 13.1825 14.9648 13.4806 14.4375L13.7322 14.3889L13.8459 14.4779C13.6775 14.618 13.772 14.574 13.5494 14.607C13.6032 14.7923 13.7239 14.8551 13.8787 14.9779C13.9682 15.5097 13.5675 15.4173 13.5951 16.2309C13.6021 16.4115 13.6122 16.5921 13.6256 16.7724C13.6725 16.4568 13.7416 15.8694 13.8423 15.5942L13.9466 15.6568C14.0333 16.3964 13.9335 17.1558 13.974 17.9003C14.1064 20.3356 14.083 22.7396 14.0772 25.1776L14.0755 41.4912L14.0715 65.9878C14.0697 68.4048 14.1181 70.8698 14.0786 73.263C14.036 75.8386 14.3047 78.5381 13.7186 81.0313C13.7195 81.0276 13.8702 81.519 13.8602 81.6831L13.5877 81.6591L13.5109 81.8331C13.1735 81.8779 13.2664 81.9185 13.0543 81.7626L13.0669 37.8237C13.0554 30.8919 12.8868 23.04 13.1285 16.1748Z" fill="#8E8E8E" fill-opacity="0.0901961"/>
</svg>
